<svg xmlns="http://www.w3.org/2000/svg" width="65" height="66">
    <g fill="none" fill-rule="evenodd" stroke="currentColor" stroke-linecap="square" stroke-width="2"
       transform="translate(1 3)">
        <path d="M38 4.584l-4.146-.634L32 0l-1.854 3.95L26 4.584l3 3.074L28.292 12 32 9.951 35.708 12 35 7.658zM15 29s17 6 17 33m16-33s-17 6-17 33m.5-40v9M15 48.584l-4.146-.634L9 44l-1.854 3.95L3 48.584l3 3.074L5.292 56 9 53.951 12.708 56 12 51.658zm45 0l-4.146-.634L54 44l-1.854 3.95-4.146.634 3 3.074L50.292 56 54 53.951 57.708 56 57 51.658z"/>
        <circle cx="4" cy="24" r="4"/>
        <circle cx="59" cy="24" r="4"/>
    </g>
</svg>