<svg xmlns="http://www.w3.org/2000/svg" width="33" height="26">
    <path d="M15 20.074C15 23.17 12.124 26 8.53 26 2.588 26 0 21.638 0 15.815 0 9.13 6.787 2.685 12.945 0l1.645 2.63C9.516 5.07 5.724 8.379 5.187 13.926h2.098c2.248 0 4.583.36 6.142 1.963C14.537 17.034 15 18.49 15 20.074zm18 0C33 23.17 30.124 26 26.53 26 20.588 26 18 21.638 18 15.815 18 9.13 24.787 2.685 30.945 0l1.645 2.63c-5.074 2.44-8.866 5.749-9.403 11.296 2.289 0 4.188-.082 5.88.518C31.7 15.38 33 17.402 33 20.074z"
          fill="#E89C86"/>
</svg>