<svg xmlns="http://www.w3.org/2000/svg" width="45" height="36">
    <path d="M11.047 34c2.611 0 4.756-.831 6.435-2.494C19.16 29.843 20 27.663 20 24.965c0-1.883-.435-3.514-1.306-4.894-.87-1.38-2.083-2.416-3.637-3.106h0L19.161 2H9.927L4.518 15.553c-1.057 2.51-1.74 4.392-2.052 5.647A15.605 15.605 0 002 24.965c0 2.635.855 4.8 2.565 6.494S8.435 34 11.047 34zm23 0c2.611 0 4.756-.831 6.435-2.494C42.16 29.843 43 27.663 43 24.965c0-1.883-.435-3.514-1.306-4.894-.87-1.38-2.083-2.416-3.637-3.106h0L42.161 2h-9.234l-5.409 13.553c-1.057 2.51-1.74 4.392-2.052 5.647A15.605 15.605 0 0025 24.965c0 2.635.855 4.8 2.565 6.494S31.435 34 34.047 34z"
          stroke="currentColor" stroke-width="3" fill="none"/>
</svg>