<svg width="336" height="336" xmlns="http://www.w3.org/2000/svg">
    <g fill="none" fill-rule="evenodd">
        <path d="M258.504 191.903c-10.584 40.142-47.144 69.735-90.622 69.735-51.76 0-93.713-41.945-93.713-93.69 0-51.746 41.953-93.69 93.713-93.69 44.25 0 81.325 30.647 91.145 71.874a93.51 93.51 0 012.567 21.816 94.058 94.058 0 01-3.09 23.955M167.882.661C75.464.661.552 75.556.552 167.948c0 92.395 74.912 167.286 167.33 167.286 92.417 0 167.33-74.891 167.33-167.286C335.211 75.556 260.298.66 167.881.66"
              fill="#CFE0E9"/>
        <path d="M189.329 226.924c3.484-4.468 9.208-8.78 13.54-11.684 3.193-2.15 5.623-3.531 5.823-3.649-.21.3-5.623 7.872-19.363 15.333m63.665 42.364c-3.121-12.435-.662-22.685-1.401-40.913-.028-.816-.072-1.652-.12-2.503-.262-4.813-.971-8.872-1.881-12.255-2.838-10.54-7.68-14.544-7.68-14.544-6.002-3.069-19.373-7.226-39.788 3.322-.331.172-.668.345-.984.536-12.602 6.844-21.047 18.176-25.516 25.472a76.898 76.898 0 00-3.192 5.72c-.01.027-.027.054-.037.08-.335.102-.682.201-1.036.302-6.008 1.669-13.66 2.642-21.19 3.239a293.1 293.1 0 01-10.02.618s-.301.017-.846.036c-3.477.182-16.924 1.162-26.316 5.918a93.511 93.511 0 0014.659 8.543c7.48-2.07 14.476-3.696 16.133-4.059-1.094.319-4.757 1.517-12.764 5.557a290.507 290.507 0 00-9.555 5.074c-17.38 9.631-15.007 14.716-16.424 26.306-1.409 11.576 4.666 40.407 4.666 40.407s-1.038 1.515-2.474 3.44c-2.918 4.365-.736 5.41-.736 5.41s7.405-4.666 11.2-7.127c.38-.243.7-.452.93-.598 2.453-1.643.017-3.522.017-3.522-.073-.235-.136-.482-.201-.718-.019-.082-.046-.153-.054-.236 0-.009-.009-.018-.009-.027a13.614 13.614 0 01-.165-.763c-.044-.2-.072-.388-.107-.59-.03-.208-.056-.426-.084-.645-.482-3.857.165-8.287.356-17.292.235-11.348-2.54-19.209 1.693-23.159 5.232-5.925 20.418-10.31 37.123-14.206 7.316-1.696 14.922-3.312 22.113-4.918.998-.22 1.98-.446 2.962-.664.022 0 .038-.008.066-.008 5.968-1.363 11.576-2.724 16.378-4.15.036-.007.065-.018.102-.027a54.611 54.611 0 006.65-2.451 58.135 58.135 0 006.222-3.212c16.188-9.513 25.25-20.318 25.25-20.318.01.473.265 2.398.763 5.43 1.131 6.872 3.497 19.406 7.153 33.652.847 2.794 2.968 8.451 1.466 10.548-1.508 2.088-2.39 5.99.219 6.2 2.619.21 1.946-1.807 3.466-1.834 3.369-.073 2.73 1.17 2.71 6.672-.036 5.51 4.287 4.756 4.835-.028.537-4.756-1.293-8.723-4.552-21.715"
              fill="#EEAB81"/>
        <path d="M251.593 228.376c-5.348 1.299-10.372 4.602-13.896 7.417-.498-3.032-.754-4.956-.763-5.43 0 0-9.062 10.804-25.249 20.317a58.033 58.033 0 01-6.223 3.213c-.638.282-1.293.554-1.946.808-.829.346-1.667.655-2.521.946-.72.242-1.447.48-2.183.698-.037.009-.066.02-.1.027-4.804 1.425-10.412 2.787-16.38 4.15-.028 0-.044.007-.066.007-.981.218-1.964.445-2.962.664-1.595-10.55-5.09-20.136-7.945-26.69.354-.099.7-.198 1.036-.3.01-.026.028-.053.037-.082 1.555-.324 4.433-1.47 7.37-2.758 4.676-2.043 9.527-4.438 9.527-4.438 13.74-7.464 19.154-15.033 19.363-15.333-.2.117-2.63 1.498-5.823 3.648.235-5.075-1.476-11.392-1.73-12.308.317-.192.654-.364.985-.538 20.415-10.547 33.786-6.39 39.789-3.321 0 0 4.841 4.005 7.679 14.544.91 3.384 1.62 7.442 1.882 12.254.047.853.091 1.689.119 2.505"
              fill="#FAD87C"/>
        <path d="M261.01 171.94s-.864 6.482-4.585 12.79v.01c-1.874 3.167-4.477 6.309-8.042 8.543v.007a21.002 21.002 0 01-5.698 2.47c-.635.119-1.22.128-1.73.017a3.454 3.454 0 01-1.529-.688c-3.866-3.078-2.172-14.806-.798-21.569.084-.4.154-.772.235-1.136 1.432-6.68 5.924-9.966 11.71-10.34a9.165 9.165 0 002.296 1.036c1.172.344 2.48.271 3.819.037 4.159 2.532 4.322 8.822 4.322 8.822"
              fill="#EEAB81"/>
        <path d="M267.599 168.02c.28 11.466-11.173 16.721-11.173 16.721v-.006c.091-.455 3.019-16.114-1.948-14.162 0 0-7.651 4.176-15.85 2.95-.408-.064-.82-.137-1.228-.227-8.645-1.872-7.51-13.617.972-15.768 7.16-1.825 8.517 2.215 12.202 4.52.673.418 1.42.78 2.295 1.035 1.171.345 2.48.272 3.82.036 5.123-.907 10.684-4.184 10.91 4.902"
              fill="#0D2436"/>
        <path d="M246.233 194.463s-.006.026-.025.071c-.091.192-.184.381-.273.58-.009.019-.018.048-.03.074a94.47 94.47 0 01-1.064 2.305c-1.398 3.041-2.937 6.183-4.01 7.87-2.505 3.932-7.635 2.68-5.533-1.86.382-.826.838-1.787 1.336-2.814.137-.27.274-.552.41-.834.782-1.58 1.62-3.26 2.383-4.766.438.345.948.58 1.53.688.51.111 1.094.102 1.729-.017a21.05 21.05 0 003.547-1.297"
              fill="#EEAB81"/>
        <path d="M179.303 261.193c-7.19 1.606-14.795 3.222-22.11 4.918-16.708 3.895-31.893 8.28-37.126 14.208-4.232 3.948-1.457 11.809-1.692 23.158-.191 9.004-.838 13.434-.355 17.291.017.22.045.428.083.646.036.2.062.39.108.59.008.072.017.136.038.21.032.179.081.37.126.553 0 .008.009.017.009.026.009.083.035.154.053.236.066.236.128.483.203.718 0 0 2.436 1.879-.018 3.523-.23.145-.548.354-.93.597-3.796 2.461-11.2 7.127-11.2 7.127s-2.183-1.045.736-5.41c1.437-1.925 2.474-3.44 2.474-3.44s-6.075-28.831-4.665-40.407c1.415-11.59-.957-16.675 16.424-26.306a289.065 289.065 0 019.553-5.074c8.007-4.04 11.672-5.239 12.767-5.557-1.658.364-8.655 1.989-16.135 4.058a93.427 93.427 0 01-14.658-8.542c9.39-4.756 22.839-5.737 26.314-5.918a296.861 296.861 0 0010.866-.653c7.531-.599 15.183-1.572 21.19-3.24 2.856 6.552 6.35 16.138 7.945 26.688"
              fill="#5F2C82"/>
        <path d="M246.233 194.463s-.006.026-.025.071c-.038.1-.119.299-.273.58-.009.019-.018.048-.03.074-.773 1.388-3.11 4.404-9.271 5.501.137-.27.274-.552.41-.834.782-1.58 1.62-3.26 2.383-4.766.438.345.948.58 1.53.688.51.111 1.094.102 1.729-.017a21.05 21.05 0 003.547-1.297"
              fill="#D68B6F"/>
    </g>
</svg>