<svg width="276" height="382" xmlns="http://www.w3.org/2000/svg">
    <path d="M263.862 1.748c6.252.031 11.341 5.172 11.311 11.423l-1.71 356.996c-.03 6.25-5.17 11.339-11.422 11.308l-62.692-.307c-6.252-.031-11.342-5.17-11.312-11.421l.599-124.431c.03-6.251-5.06-11.39-11.313-11.421l-165.626-.824c-6.252-.03-11.342-5.17-11.313-11.42L1.387 11.804C1.417 5.552 6.557.463 12.807.494L75.502.81c6.252.033 11.342 5.172 11.311 11.423l-.6 124.429c-.029 6.25 5.06 11.39 11.312 11.42l80.202.396c6.252.031 11.391-5.057 11.421-11.308l.597-124.43c.03-6.25 5.17-11.34 11.421-11.308l62.696.316z"
          fill="#CFE0E9" fill-rule="evenodd"/>
</svg>